<?xml version="1.0" encoding="utf-8"?>
<!-- Generator: Adobe Illustrator 25.4.0, SVG Export Plug-In . SVG Version: 6.00 Build 0)  -->
<svg version="1.1" id="Layer_1" xmlns="http://www.w3.org/2000/svg" xmlns:xlink="http://www.w3.org/1999/xlink" x="0px" y="0px"
	 viewBox="0 0 824.38 900.54" style="enable-background:new 0 0 824.38 900.54;" xml:space="preserve">
<style type="text/css">
	.st0{fill:#F39200;}
	.st1{fill:#018F4F;}
	.st2{fill:#127FB7;}
	.st3{fill:#0E0C0A;}
</style>
<circle cx="61.57" cy="31.55" r="21.55"/>
<path class="st0" d="M777.25,186.5L598,365.74c49.5,49.5,129.75,49.5,179.24,0S826.74,235.99,777.25,186.5z"/>
<path class="st1" d="M51.16,762.16c-18.53,0-35.96-4.72-51.16-13.01v138.38c15.2,8.29,32.63,13.01,51.16,13.01
	c59.08,0,106.98-47.9,106.98-106.98c0-26.38-9.56-50.53-25.39-69.19C113.13,747.49,83.86,762.16,51.16,762.16z"/>
<path class="st2" d="M51.16,686.58c32.7,0,61.96,14.67,81.59,37.79c15.83-18.65,25.39-42.8,25.39-69.19
	c0-59.08-47.9-106.98-106.98-106.98c-18.53,0-35.96,4.71-51.16,13.01V699.6C15.2,691.3,32.63,686.58,51.16,686.58z"/>
<path class="st3" d="M51.16,686.58c-18.53,0-35.96,4.72-51.16,13.01v49.55c15.2,8.3,32.63,13.01,51.16,13.01
	c32.7,0,61.96-14.67,81.59-37.79C113.13,701.26,83.86,686.58,51.16,686.58z"/>
</svg>
